FFmpeg version 0.6-4:0.6-2ubuntu6, Copyright (c) 2000-2010 the FFmpeg developers
  built on Oct  5 2010 22:35:47 with gcc 4.4.5
  configuration: --extra-version=4:0.6-2ubuntu6 --prefix=/usr --enable-avfilter --enable-avfilter-lavf --enable-vdpau --enable-bzlib --enable-libgsm --enable-libschroedinger --enable-libspeex --enable-libtheora --enable-libvorbis --enable-vaapi --enable-pthreads --enable-zlib --enable-libvpx --disable-stripping --enable-runtime-cpudetect --enable-gpl --enable-postproc --enable-x11grab --enable-libdc1394 --enable-shared --disable-static
  WARNING: library configuration mismatch
  libavutil   configuration: --extra-version=4:0.6-2ubuntu6 --prefix=/usr --enable-avfilter --enable-avfilter-lavf --enable-vdpau --enable-bzlib --enable-libgsm --enable-libschroedinger --enable-libspeex --enable-libtheora --enable-libvorbis --enable-vaapi --enable-pthreads --enable-zlib --enable-libvpx --disable-stripping --enable-runtime-cpudetect --enable-gpl --enable-postproc --enable-x11grab --enable-libdc1394 --shlibdir=/usr/lib/i686/cmov --cpu=i686 --enable-shared --disable-static --disable-ffmpeg --disable-ffplay
  libavcodec  configuration: --extra-version=4:0.6-2ubuntu6 --prefix=/usr --enable-avfilter --enable-avfilter-lavf --enable-vdpau --enable-bzlib --enable-libgsm --enable-libschroedinger --enable-libspeex --enable-libtheora --enable-libvorbis --enable-vaapi --enable-pthreads --enable-zlib --enable-libvpx --disable-stripping --enable-runtime-cpudetect --enable-gpl --enable-postproc --enable-x11grab --enable-libdc1394 --shlibdir=/usr/lib/i686/cmov --cpu=i686 --enable-shared --disable-static --disable-ffmpeg --disable-ffplay
  libavformat configuration: --extra-version=4:0.6-2ubuntu6 --prefix=/usr --enable-avfilter --enable-avfilter-lavf --enable-vdpau --enable-bzlib --enable-libgsm --enable-libschroedinger --enable-libspeex --enable-libtheora --enable-libvorbis --enable-vaapi --enable-pthreads --enable-zlib --enable-libvpx --disable-stripping --enable-runtime-cpudetect --enable-gpl --enable-postproc --enable-x11grab --enable-libdc1394 --shlibdir=/usr/lib/i686/cmov --cpu=i686 --enable-shared --disable-static --disable-ffmpeg --disable-ffplay
  libavdevice configuration: --extra-version=4:0.6-2ubuntu6 --prefix=/usr --enable-avfilter --enable-avfilter-lavf --enable-vdpau --enable-bzlib --enable-libgsm --enable-libschroedinger --enable-libspeex --enable-libtheora --enable-libvorbis --enable-vaapi --enable-pthreads --enable-zlib --enable-libvpx --disable-stripping --enable-runtime-cpudetect --enable-gpl --enable-postproc --enable-x11grab --enable-libdc1394 --shlibdir=/usr/lib/i686/cmov --cpu=i686 --enable-shared --disable-static --disable-ffmpeg --disable-ffplay
  libavfilter configuration: --extra-version=4:0.6-2ubuntu6 --prefix=/usr --enable-avfilter --enable-avfilter-lavf --enable-vdpau --enable-bzlib --enable-libgsm --enable-libschroedinger --enable-libspeex --enable-libtheora --enable-libvorbis --enable-vaapi --enable-pthreads --enable-zlib --enable-libvpx --disable-stripping --enable-runtime-cpudetect --enable-gpl --enable-postproc --enable-x11grab --enable-libdc1394 --shlibdir=/usr/lib/i686/cmov --cpu=i686 --enable-shared --disable-static --disable-ffmpeg --disable-ffplay
  libswscale  configuration: --extra-version=4:0.6-2ubuntu6 --prefix=/usr --enable-avfilter --enable-avfilter-lavf --enable-vdpau --enable-bzlib --enable-libgsm --enable-libschroedinger --enable-libspeex --enable-libtheora --enable-libvorbis --enable-vaapi --enable-pthreads --enable-zlib --enable-libvpx --disable-stripping --enable-runtime-cpudetect --enable-gpl --enable-postproc --enable-x11grab --enable-libdc1394 --shlibdir=/usr/lib/i686/cmov --cpu=i686 --enable-shared --disable-static --disable-ffmpeg --disable-ffplay
  libpostproc configuration: --extra-version=4:0.6-2ubuntu6 --prefix=/usr --enable-avfilter --enable-avfilter-lavf --enable-vdpau --enable-bzlib --enable-libgsm --enable-libschroedinger --enable-libspeex --enable-libtheora --enable-libvorbis --enable-vaapi --enable-pthreads --enable-zlib --enable-libvpx --disable-stripping --enable-runtime-cpudetect --enable-gpl --enable-postproc --enable-x11grab --enable-libdc1394 --shlibdir=/usr/lib/i686/cmov --cpu=i686 --enable-shared --disable-static --disable-ffmpeg --disable-ffplay
  libavutil     50.15. 1 / 50.15. 1
  libavcodec    52.72. 2 / 52.72. 2
  libavformat   52.64. 2 / 52.64. 2
  libavdevice   52. 2. 0 / 52. 2. 0
  libavfilter    1.19. 0 /  1.19. 0
  libswscale     0.11. 0 /  0.11. 0
  libpostproc   51. 2. 0 / 51. 2. 0
[mov,mp4,m4a,3gp,3g2,mj2 @ 0x9fcc420]max_analyze_duration reached

Seems stream 0 codec frame rate differs from container frame rate: 59.94 (60000/1001) -> 29.97 (2997/100)
Input #0, mov,mp4,m4a,3gp,3g2,mj2, from '/home/willg/.miro/Movies/GeekBeat-TV--Large-MP4-/geekbeattv--0069--2010-12-01--large.h264.mp4':
  Metadata:
    major_brand     : M4V 
    minor_version   : 1
    compatible_brands: M4V M4A mp42isom
    encoder         : mp4creator 1.5.0.1
  Duration: 00:07:31.08, start: 0.000000, bitrate: 1341 kb/s
    Stream #0.0(eng): Video: h264, yuv420p, 640x360 [PAR 1:1 DAR 16:9], 1147 kb/s, 29.97 fps, 29.97 tbr, 2997 tbn, 59.94 tbc
    Stream #0.1(eng): Audio: aac, 48000 Hz, stereo, s16, 114 kb/s
    Stream #0.2(eng): Data: rtp  / 0x20707472, 58 kb/s
    Stream #0.3(eng): Data: rtp  / 0x20707472, 14 kb/s
Unknown encoder 'libx264'
